<?xml version="1.0" encoding="UTF-8"?>
<svg id="Layer_1" data-name="Layer 1" xmlns="http://www.w3.org/2000/svg" viewBox="0 0 122.02 191.58">
  <defs>
    <style>
      .cls-1 {
        font-family: AcierBATText-Gris, 'Acier BAT';
        font-size: 166.84px;
        letter-spacing: 0em;
      }

      .cls-1, .cls-2, .cls-3 {
        fill: #f15a29;
      }

      .cls-1, .cls-3 {
        stroke: #231f20;
        stroke-width: .5px;
      }

      .cls-1, .cls-3, .cls-4 {
        stroke-miterlimit: 10;
      }

      .cls-4 {
        fill: none;
        stroke: #f15a29;
      }
    </style>
  </defs>
  <path class="cls-2" d="M26.17,66.24c1.67,0,2.21-2.16,.25-2.16-1.67,0-2.21,2.16-.25,2.16h0Z"/>
  <path class="cls-2" d="M27.97,65.33c1.61,0,2.26-2.01,.29-2.01-1.61,0-2.26,2.01-.29,2.01h0Z"/>
  <path class="cls-2" d="M30,64.72c.64,0,1.59-.18,1.9-.84,.28-.6-.24-1.05-.84-1.05-.64,0-1.59,.18-1.9,.84-.28,.6,.24,1.05,.84,1.05h0Z"/>
  <text class="cls-1" transform="translate(31.68 157.28) rotate(-12.78)"><tspan x="0" y="0">B</tspan></text>
  <path class="cls-3" d="M9.71,70.84s-1.72-4.6-3.42-9.8,2.35-13.17,4.25-15.86,8.59-6.67,8.59-6.67c0,0-12.08,6.92,0,0s21.16-.48,21.16-.48c0,0,13.34,10.02,12.71,12.41s.13,3.25-6.47,6.9c-6.6,3.65-3.78,2.6-6.23,3.22-.71,.18-7.81,1.27-8.43,1.26-2.92-.09-9.79,2.73-9.79,2.73,0,0-11.32,4.75-12.19,6.45s-5.7,13.49-5.7,13.49c0,0,.19,7.03,6.99,1.71s5.94-5.85,8.9-6.85,3.27,1.01,6.74-.44,6.16-2.49,7.5-7.41c1.34-4.92,1.73-9.93,1.73-9.93l-.13-.79"/>
  <path class="cls-2" d="M23.49,72.14c3.22,0,3.22-5,0-5s-3.22,5,0,5h0Z"/>
  <path class="cls-4" d="M23.43,69.25c-.17,.12-.38,.19-.59,.19,.17-.18,.39-.31,.64-.36"/>
  <path class="cls-2" d="M29.69,64.86c.61,0,1.61-.18,1.9-.82,.27-.59-.23-.98-.82-.98s-1.61,.18-1.9,.82c-.27,.59,.23,.98,.82,.98h0Z"/>
  <path class="cls-2" d="M18.77,68.87c.62,0,1.61-.18,1.9-.83,.27-.59-.23-1-.83-1s-1.61,.18-1.9,.83c-.27,.59,.23,1,.83,1h0Z"/>
  <path class="cls-2" d="M19.17,68.06c.65,0,1.54-.11,2.05-.55,.36-.31,.47-.68-.18-.68s-1.54,.11-2.05,.55c-.36,.31-.47,.68,.18,.68h0Z"/>
  <path class="cls-2" d="M19.59,68.09c.55,0,1.63-.21,1.92-.75s-.25-.71-.75-.71c-.55,0-1.63,.21-1.92,.75s.25,.71,.75,.71h0Z"/>
  <path class="cls-2" d="M19.65,68.26c.65,0,1.59-.18,1.9-.86,.27-.6-.24-1.1-.85-1.1-.65,0-1.59,.18-1.9,.86-.27,.6,.24,1.1,.85,1.1h0Z"/>
  <path class="cls-2" d="M19.59,68.03c.56,0,1.63-.2,1.92-.76s-.25-.74-.76-.74c-.56,0-1.63,.2-1.92,.76s.25,.74,.76,.74h0Z"/>
  <path class="cls-2" d="M22.03,67.12c.65,0,1.59-.18,1.9-.85,.28-.6-.24-1.06-.84-1.06-.65,0-1.59,.18-1.9,.85-.28,.6,.24,1.06,.84,1.06h0Z"/>
  <path class="cls-2" d="M13.31,71.11c.57,0,1.63-.2,1.92-.77s-.25-.79-.77-.79c-.57,0-1.63,.2-1.92,.77s.25,.79,.77,.79h0Z"/>
  <path class="cls-2" d="M13.01,71.33c.57,0,1.63-.2,1.92-.77s-.25-.78-.77-.78c-.57,0-1.63,.2-1.92,.77s.25,.78,.77,.78h0Z"/>
  <path class="cls-2" d="M14.08,70.6c.65,0,1.54-.11,2.05-.55,.36-.31,.47-.67-.18-.67s-1.54,.11-2.05,.55c-.36,.31-.47,.67,.18,.67h0Z"/>
  <path class="cls-2" d="M14.39,70.59c.51,0,1.66-.22,1.93-.71,.3-.53-.26-.55-.7-.55-.51,0-1.66,.22-1.93,.71-.3,.53,.26,.55,.7,.55h0Z"/>
  <path class="cls-2" d="M14.45,70.79c.59,0,1.62-.19,1.91-.8s-.24-.88-.79-.88c-.59,0-1.62,.19-1.91,.8s.24,.88,.79,.88h0Z"/>
  <path class="cls-2" d="M14.71,70.39c.54,0,1.64-.21,1.93-.74s-.26-.67-.74-.67c-.54,0-1.64,.21-1.93,.74s.26,.67,.74,.67h0Z"/>
  <path class="cls-2" d="M15.92,70.53c1.66,0,2.22-2.13,.25-2.13-1.66,0-2.22,2.13-.25,2.13h0Z"/>
  <path class="cls-2" d="M16.3,69.13c.64,0,1.53-.15,2.05-.55,.38-.29,.47-.57-.15-.57s-1.53,.15-2.05,.55c-.38,.29-.47,.57,.15,.57h0Z"/>
  <path class="cls-2" d="M17.07,69.06c.54,0,1.64-.21,1.93-.74,.3-.55-.26-.65-.73-.65-.54,0-1.64,.21-1.93,.74-.3,.55,.26,.65,.73,.65h0Z"/>
  <path class="cls-2" d="M17.09,69.15c.57,0,1.63-.2,1.92-.77s-.25-.78-.77-.78c-.57,0-1.63,.2-1.92,.77s.25,.78,.77,.78h0Z"/>
  <path class="cls-2" d="M17.28,69.2c.61,0,1.62-.19,1.91-.82,.27-.59-.23-.95-.81-.95-.61,0-1.62,.19-1.91,.82-.27,.59,.23,.95,.81,.95h0Z"/>
  <path class="cls-2" d="M13.75,70.8c.54,0,1.64-.21,1.93-.74s-.26-.68-.74-.68c-.54,0-1.64,.21-1.93,.74s.26,.68,.74,.68h0Z"/>
  <path class="cls-2" d="M13.79,70.95c.6,0,1.62-.19,1.91-.81,.28-.59-.24-.92-.8-.92-.6,0-1.62,.19-1.91,.81-.28,.59,.24,.92,.8,.92h0Z"/>
  <path class="cls-3" d="M9.89,71s9.75-5.62,12.59-6.61c0,0-4.63-6.25-5.31-9.05s-1.63-8.37-1.13-10.85,2.18-5.57,2.18-5.57c0,0,13.19,4.68,15.54,7.74s7.53,9.77,8.23,11.34l.7,1.57c-1.54,.92-6.57,1.1-10.5,1.62-.8,.11-1.69,.31-2.61,.56-3.59,1-7.51,2.79-7.51,2.79"/>
  <path class="cls-2" d="M27.24,65.23c.58,0,1.62-.19,1.91-.79s-.24-.85-.79-.85c-.58,0-1.62,.19-1.91,.79s.24,.85,.79,.85h0Z"/>
  <path class="cls-2" d="M26.16,70.6c3.22,0,3.22-5,0-5s-3.22,5,0,5h0Z"/>
  <path class="cls-2" d="M19.3,71.45c3.22,0,3.22-5,0-5s-3.22,5,0,5h0Z"/>
  <path class="cls-2" d="M19.59,71.26c3.22,0,3.22-5,0-5s-3.22,5,0,5h0Z"/>
  <path class="cls-2" d="M20.46,70.78c3.22,0,3.22-5,0-5s-3.22,5,0,5h0Z"/>
  <path class="cls-2" d="M25.31,68.64c3.22,0,3.22-5,0-5s-3.22,5,0,5h0Z"/>
  <path class="cls-2" d="M26.86,68.26c3.22,0,3.22-5,0-5s-3.22,5,0,5h0Z"/>
  <path class="cls-2" d="M28.5,67.68c3.22,0,3.22-5,0-5s-3.22,5,0,5h0Z"/>
  <path class="cls-2" d="M29.57,67.38c3.22,0,3.22-5,0-5s-3.22,5,0,5h0Z"/>
  <path class="cls-2" d="M30.54,67.09c3.22,0,3.22-5,0-5s-3.22,5,0,5h0Z"/>
  <path class="cls-2" d="M31.41,67.09c3.22,0,3.22-5,0-5s-3.22,5,0,5h0Z"/>
  <path class="cls-2" d="M32.19,67c3.22,0,3.22-5,0-5s-3.22,5,0,5h0Z"/>
  <path class="cls-2" d="M26.76,68.06c3.22,0,3.22-5,0-5s-3.22,5,0,5h0Z"/>
  <path class="cls-2" d="M18.14,72.04c3.22,0,3.22-5,0-5s-3.22,5,0,5h0Z"/>
  <path class="cls-2" d="M16.88,72.81c3.22,0,3.22-5,0-5s-3.22,5,0,5h0Z"/>
  <path class="cls-2" d="M15.52,73.49c3.22,0,3.22-5,0-5s-3.22,5,0,5h0Z"/>
</svg>