<?xml version="1.0" encoding="utf-8"?>
<!-- Generator: Adobe Illustrator 26.5.0, SVG Export Plug-In . SVG Version: 6.00 Build 0)  -->
<svg version="1.1" id="Layer_1" xmlns="http://www.w3.org/2000/svg" xmlns:xlink="http://www.w3.org/1999/xlink" x="0px" y="0px"
	 viewBox="0 0 128 128" style="enable-background:new 0 0 128 128;" xml:space="preserve">
<style type="text/css">
	.st0{fill:#F15A29;}
	.st1{fill:#F15A29;stroke:#000000;stroke-width:0.5;stroke-miterlimit:10;}
	.st2{font-family:'AcierBATText-Gris';}
	.st3{font-size:166.844px;}
	.st4{fill:none;stroke:#F15A29;stroke-miterlimit:10;}
</style>
<g>
	<g>
		<path class="st0" d="M31.77,33.95c1.67,0,2.21-2.16,0.25-2.16C30.36,31.79,29.81,33.95,31.77,33.95L31.77,33.95z"/>
	</g>
</g>
<g>
	<g>
		<path class="st0" d="M33.57,33.04c1.61,0,2.26-2.01,0.29-2.01C32.25,31.03,31.6,33.04,33.57,33.04L33.57,33.04z"/>
	</g>
</g>
<g>
	<g>
		<path class="st0" d="M35.61,32.42c0.64,0,1.59-0.18,1.9-0.84c0.28-0.6-0.24-1.05-0.84-1.05c-0.64,0-1.59,0.18-1.9,0.84
			C34.49,31.96,35.01,32.42,35.61,32.42L35.61,32.42z"/>
	</g>
</g>
<text transform="matrix(0.9752 -0.2213 0.2213 0.9752 37.2851 124.9828)" class="st1 st2 st3">B</text>
<path class="st1" d="M15.31,38.55c0,0-1.72-4.6-3.42-9.8s2.35-13.17,4.25-15.86s8.59-6.67,8.59-6.67s-12.08,6.92,0,0
	s21.16-0.48,21.16-0.48s13.34,10.02,12.71,12.41c-0.62,2.39,0.13,3.25-6.47,6.9s-3.78,2.6-6.23,3.22c-0.71,0.18-7.81,1.27-8.43,1.26
	c-2.92-0.09-9.79,2.73-9.79,2.73S16.37,37,15.5,38.7c-0.87,1.7-5.7,13.49-5.7,13.49s0.19,7.03,6.99,1.71s5.94-5.85,8.9-6.85
	c2.96-1,3.27,1.01,6.74-0.44c3.47-1.45,6.16-2.49,7.5-7.41s1.73-9.93,1.73-9.93l-0.13-0.79"/>
<g>
	<g>
		<path class="st0" d="M29.09,39.84c3.22,0,3.22-5,0-5C25.87,34.84,25.87,39.84,29.09,39.84L29.09,39.84z"/>
	</g>
</g>
<path class="st4" d="M29.04,36.95c-0.17,0.12-0.38,0.19-0.59,0.19c0.17-0.18,0.39-0.31,0.64-0.36"/>
<g>
	<g>
		<path class="st0" d="M35.29,32.56c0.61,0,1.61-0.18,1.9-0.82c0.27-0.59-0.23-0.98-0.82-0.98c-0.61,0-1.61,0.18-1.9,0.82
			C34.21,32.17,34.71,32.56,35.29,32.56L35.29,32.56z"/>
	</g>
</g>
<g>
	<g>
		<path class="st0" d="M24.38,36.57c0.62,0,1.61-0.18,1.9-0.83c0.27-0.59-0.23-1-0.83-1c-0.62,0-1.61,0.18-1.9,0.83
			C23.29,36.16,23.78,36.57,24.38,36.57L24.38,36.57z"/>
	</g>
</g>
<g>
	<g>
		<path class="st0" d="M24.78,35.76c0.65,0,1.54-0.11,2.05-0.55c0.36-0.31,0.47-0.68-0.18-0.68c-0.65,0-1.54,0.11-2.05,0.55
			C24.24,35.39,24.13,35.76,24.78,35.76L24.78,35.76z"/>
	</g>
</g>
<g>
	<g>
		<path class="st0" d="M25.2,35.8c0.55,0,1.63-0.21,1.92-0.75c0.3-0.56-0.25-0.71-0.75-0.71c-0.55,0-1.63,0.21-1.92,0.75
			C24.15,35.65,24.7,35.8,25.2,35.8L25.2,35.8z"/>
	</g>
</g>
<g>
	<g>
		<path class="st0" d="M25.26,35.96c0.65,0,1.59-0.18,1.9-0.86c0.27-0.6-0.24-1.1-0.85-1.1c-0.65,0-1.59,0.18-1.9,0.86
			C24.14,35.46,24.64,35.96,25.26,35.96L25.26,35.96z"/>
	</g>
</g>
<g>
	<g>
		<path class="st0" d="M25.2,35.74c0.56,0,1.63-0.2,1.92-0.76c0.29-0.57-0.25-0.74-0.76-0.74c-0.56,0-1.63,0.2-1.92,0.76
			C24.15,35.56,24.69,35.74,25.2,35.74L25.2,35.74z"/>
	</g>
</g>
<g>
	<g>
		<path class="st0" d="M27.63,34.82c0.65,0,1.59-0.18,1.9-0.85c0.28-0.6-0.24-1.06-0.84-1.06c-0.65,0-1.59,0.18-1.9,0.85
			C26.51,34.35,27.03,34.82,27.63,34.82L27.63,34.82z"/>
	</g>
</g>
<g>
	<g>
		<path class="st0" d="M18.91,38.81c0.57,0,1.63-0.2,1.92-0.77c0.29-0.57-0.25-0.79-0.77-0.79c-0.57,0-1.63,0.2-1.92,0.77
			C17.86,38.6,18.39,38.81,18.91,38.81L18.91,38.81z"/>
	</g>
</g>
<g>
	<g>
		<path class="st0" d="M18.61,39.03c0.57,0,1.63-0.2,1.92-0.77c0.29-0.57-0.25-0.78-0.77-0.78c-0.57,0-1.63,0.2-1.92,0.77
			C17.56,38.83,18.09,39.03,18.61,39.03L18.61,39.03z"/>
	</g>
</g>
<g>
	<g>
		<path class="st0" d="M19.68,38.31c0.65,0,1.54-0.11,2.05-0.55c0.36-0.31,0.47-0.67-0.18-0.67c-0.65,0-1.54,0.11-2.05,0.55
			C19.14,37.94,19.03,38.31,19.68,38.31L19.68,38.31z"/>
	</g>
</g>
<g>
	<g>
		<path class="st0" d="M20,38.29c0.51,0,1.66-0.22,1.93-0.71c0.3-0.53-0.26-0.55-0.7-0.55c-0.51,0-1.66,0.22-1.93,0.71
			C19,38.27,19.55,38.29,20,38.29L20,38.29z"/>
	</g>
</g>
<g>
	<g>
		<path class="st0" d="M20.06,38.49c0.59,0,1.62-0.19,1.91-0.8c0.28-0.58-0.24-0.88-0.79-0.88c-0.59,0-1.62,0.19-1.91,0.8
			C18.98,38.2,19.5,38.49,20.06,38.49L20.06,38.49z"/>
	</g>
</g>
<g>
	<g>
		<path class="st0" d="M20.32,38.1c0.54,0,1.64-0.21,1.93-0.74c0.3-0.55-0.26-0.67-0.74-0.67c-0.54,0-1.64,0.21-1.93,0.74
			C19.28,37.98,19.84,38.1,20.32,38.1L20.32,38.1z"/>
	</g>
</g>
<g>
	<g>
		<path class="st0" d="M21.52,38.23c1.66,0,2.22-2.13,0.25-2.13C20.12,36.1,19.56,38.23,21.52,38.23L21.52,38.23z"/>
	</g>
</g>
<g>
	<g>
		<path class="st0" d="M21.91,36.83c0.64,0,1.53-0.15,2.05-0.55c0.38-0.29,0.47-0.57-0.15-0.57c-0.64,0-1.53,0.15-2.05,0.55
			C21.37,36.55,21.28,36.83,21.91,36.83L21.91,36.83z"/>
	</g>
</g>
<g>
	<g>
		<path class="st0" d="M22.68,36.77c0.54,0,1.64-0.21,1.93-0.74c0.3-0.55-0.26-0.65-0.73-0.65c-0.54,0-1.64,0.21-1.93,0.74
			C21.64,36.67,22.21,36.77,22.68,36.77L22.68,36.77z"/>
	</g>
</g>
<g>
	<g>
		<path class="st0" d="M22.7,36.85c0.57,0,1.63-0.2,1.92-0.77c0.29-0.57-0.25-0.78-0.77-0.78c-0.57,0-1.63,0.2-1.92,0.77
			C21.64,36.64,22.18,36.85,22.7,36.85L22.7,36.85z"/>
	</g>
</g>
<g>
	<g>
		<path class="st0" d="M22.88,36.9c0.61,0,1.62-0.19,1.91-0.82c0.27-0.59-0.23-0.95-0.81-0.95c-0.61,0-1.62,0.19-1.91,0.82
			C21.8,36.55,22.31,36.9,22.88,36.9L22.88,36.9z"/>
	</g>
</g>
<g>
	<g>
		<path class="st0" d="M19.35,38.5c0.54,0,1.64-0.21,1.93-0.74c0.3-0.56-0.26-0.68-0.74-0.68c-0.54,0-1.64,0.21-1.93,0.74
			C18.32,38.38,18.87,38.5,19.35,38.5L19.35,38.5z"/>
	</g>
</g>
<g>
	<g>
		<path class="st0" d="M19.4,38.66c0.6,0,1.62-0.19,1.91-0.81c0.28-0.59-0.24-0.92-0.8-0.92c-0.6,0-1.62,0.19-1.91,0.81
			C18.32,38.33,18.83,38.66,19.4,38.66L19.4,38.66z"/>
	</g>
</g>
<path class="st1" d="M15.5,38.7c0,0,9.75-5.62,12.59-6.61c0,0-4.63-6.25-5.31-9.05c-0.68-2.8-1.63-8.37-1.13-10.85
	c0.5-2.48,2.18-5.57,2.18-5.57s13.19,4.68,15.54,7.74c2.35,3.06,7.53,9.77,8.23,11.34s0.7,1.57,0.7,1.57
	c-1.54,0.92-6.57,1.1-10.5,1.62C37,29,36.11,29.2,35.2,29.46c-3.59,1-7.51,2.79-7.51,2.79"/>
<g>
	<g>
		<path class="st0" d="M32.84,32.93c0.58,0,1.62-0.19,1.91-0.79c0.28-0.58-0.24-0.85-0.79-0.85c-0.58,0-1.62,0.19-1.91,0.79
			C31.78,32.66,32.3,32.93,32.84,32.93L32.84,32.93z"/>
	</g>
</g>
<path class="st4" d="M28.67,31.82"/>
<g>
	<g>
		<path class="st0" d="M31.77,38.31c3.22,0,3.22-5,0-5C28.55,33.31,28.55,38.31,31.77,38.31L31.77,38.31z"/>
	</g>
</g>
<g>
	<g>
		<path class="st0" d="M24.9,39.16c3.22,0,3.22-5,0-5C21.69,34.16,21.68,39.16,24.9,39.16L24.9,39.16z"/>
	</g>
</g>
<g>
	<g>
		<path class="st0" d="M25.2,38.96c3.22,0,3.22-5,0-5C21.98,33.96,21.97,38.96,25.2,38.96L25.2,38.96z"/>
	</g>
</g>
<g>
	<g>
		<path class="st0" d="M26.07,38.48c3.22,0,3.22-5,0-5C22.85,33.48,22.84,38.48,26.07,38.48L26.07,38.48z"/>
	</g>
</g>
<g>
	<g>
		<path class="st0" d="M30.91,36.35c3.22,0,3.22-5,0-5C27.69,31.35,27.69,36.35,30.91,36.35L30.91,36.35z"/>
	</g>
</g>
<g>
	<g>
		<path class="st0" d="M32.46,35.96c3.22,0,3.22-5,0-5C29.25,30.96,29.24,35.96,32.46,35.96L32.46,35.96z"/>
	</g>
</g>
<g>
	<g>
		<path class="st0" d="M34.11,35.38c3.22,0,3.22-5,0-5C30.89,30.38,30.89,35.38,34.11,35.38L34.11,35.38z"/>
	</g>
</g>
<g>
	<g>
		<path class="st0" d="M35.18,35.09c3.22,0,3.22-5,0-5C31.96,30.09,31.95,35.09,35.18,35.09L35.18,35.09z"/>
	</g>
</g>
<g>
	<g>
		<path class="st0" d="M36.14,34.8c3.22,0,3.22-5,0-5C32.93,29.8,32.92,34.8,36.14,34.8L36.14,34.8z"/>
	</g>
</g>
<g>
	<g>
		<path class="st0" d="M37.02,34.8c3.22,0,3.22-5,0-5C33.8,29.8,33.79,34.8,37.02,34.8L37.02,34.8z"/>
	</g>
</g>
<g>
	<g>
		<path class="st0" d="M37.79,34.7c3.22,0,3.22-5,0-5C34.57,29.7,34.57,34.7,37.79,34.7L37.79,34.7z"/>
	</g>
</g>
<g>
	<g>
		<path class="st0" d="M32.37,35.77c3.22,0,3.22-5,0-5C29.15,30.77,29.14,35.77,32.37,35.77L32.37,35.77z"/>
	</g>
</g>
<g>
	<g>
		<path class="st0" d="M23.74,39.74c3.22,0,3.22-5,0-5C20.52,34.74,20.52,39.74,23.74,39.74L23.74,39.74z"/>
	</g>
</g>
<g>
	<g>
		<path class="st0" d="M22.48,40.51c3.22,0,3.22-5,0-5C19.26,35.51,19.26,40.51,22.48,40.51L22.48,40.51z"/>
	</g>
</g>
<g>
	<g>
		<path class="st0" d="M21.13,41.19c3.22,0,3.22-5,0-5C17.91,36.19,17.9,41.19,21.13,41.19L21.13,41.19z"/>
	</g>
</g>
</svg>
